<?xml version="1.0" encoding="UTF-8"?>
<svg id="_구글" data-name="구글" xmlns="http://www.w3.org/2000/svg" viewBox="0 0 200 200">
  <defs>
    <style>
      .cls-1 {
        fill: #3e82f1;
      }

      .cls-1, .cls-2, .cls-3, .cls-4 {
        fill-rule: evenodd;
      }

      .cls-2 {
        fill: #e74133;
      }

      .cls-3 {
        fill: #32a753;
      }

      .cls-4 {
        fill: #f9bb00;
      }
    </style>
  </defs>
  <path class="cls-1" d="m160.21,101.4c0-4.36-.39-8.55-1.12-12.57h-57.86v23.76h33.06c-1.42,7.68-5.75,14.19-12.26,18.54v15.41h19.85c11.62-10.7,18.32-26.44,18.32-45.15h0Z"/>
  <path class="cls-3" d="m101.23,161.44c16.59,0,30.49-5.5,40.66-14.88l-19.85-15.41c-5.5,3.69-12.54,5.86-20.8,5.86-16,0-29.54-10.81-34.38-25.33h-20.52v15.92c10.11,20.08,30.88,33.85,54.9,33.85h0Z"/>
  <path class="cls-4" d="m66.85,111.67c-1.23-3.69-1.93-7.62-1.93-11.67s.7-7.99,1.93-11.67v-15.92h-20.52c-4.16,8.29-6.53,17.68-6.53,27.59s2.37,19.3,6.53,27.59l20.52-15.92h0Z"/>
  <path class="cls-2" d="m101.23,63c9.02,0,17.12,3.1,23.48,9.19l17.62-17.62c-10.64-9.91-24.55-16-41.11-16-24.02,0-44.79,13.77-54.9,33.85l20.52,15.92c4.83-14.52,18.37-25.33,34.38-25.33h0Z"/>
</svg>