<?xml version="1.0" encoding="UTF-8"?>
<svg id="_구글" data-name="구글" xmlns="http://www.w3.org/2000/svg" xmlns:xlink="http://www.w3.org/1999/xlink" viewBox="0 0 200 200">
  <defs>
    <style>
      .cls-1 {
        fill: #371d1e;
      }

      .cls-2 {
        fill: #fae100;
      }

      .cls-3 {
        clip-path: url(#clippath-7);
      }

      .cls-4 {
        clip-path: url(#clippath-1);
      }

      .cls-5 {
        clip-path: url(#clippath-4);
      }

      .cls-6 {
        clip-path: url(#clippath-10);
      }
    </style>
    <clipPath id="clippath-1">
      <path class="cls-2" d="m55.63,82.6h6.55s.04,17.98,0,22.17c0,3.06,6.81,3.1,6.8.04l.03-21.98s2.19.01,6.51.02c4.07,0,4.07-6.4,0-6.4-4.58,0-19.91-.13-19.91-.13-3.84,0-3.83,6.28,0,6.28"/>
    </clipPath>
    <clipPath id="clippath-4">
      <path class="cls-2" d="m86.96,83.76l3.64,11.41h-7.59l3.95-11.41Zm-4.08-5.35c-1.61,3.55-7.43,20.3-9.36,24.74-1.4,3.21,4.62,5.83,6.02,2.62l1.31-4.58h11.98s-.41.19,1.18,4.39c1.29,3.4,7.51,1.04,6.22-2.36-1.84-4.86-8.2-22.34-9.36-24.81-.53-1.15-2.45-1.97-4.31-1.97-1.54,0-3.04.56-3.67,1.97"/>
    </clipPath>
    <clipPath id="clippath-7">
      <path class="cls-2" d="m102.52,79.46c.01,5.69.03,24.04.03,24.04,0,0-.53,3.65,2.6,3.65s10.07-.03,13.14-.03,3.06-6.54-.02-6.54-8.69-.03-8.69-.03c0,0,.03-16.97.02-21.09,0-1.99-1.77-2.99-3.54-2.99s-3.55,1-3.55,3.01"/>
    </clipPath>
    <clipPath id="clippath-10">
      <path class="cls-2" d="m122.19,78.56c.07,2.5-.08,25.07-.08,26.74,0,2.64,6.72,2.63,6.72,0,0-3.07,0-8.88,0-8.88l1.97-1.58,8.63,11.77c1.75,2.3,7.23-1.86,5.49-4.16l-9.16-12.07s6.22-6.73,8.67-9.16c1.43-1.42-3-5.88-4.43-4.46-1.39,1.37-11.13,11.13-11.13,11.13,0,0,.09-6.13,0-9.51-.03-1.29-1.61-1.91-3.23-1.91-1.73,0-3.49.71-3.46,2.09"/>
    </clipPath>
  </defs>
  <path class="cls-1" d="m100,41.58c-35.12,0-63.6,22.51-63.6,50.28,0,18.07,12.06,33.91,30.17,42.78-1.33,4.96-4.82,17.99-5.51,20.77-.86,3.46,1.26,3.41,2.66,2.49,1.1-.73,17.43-11.84,24.47-16.63,3.83.57,7.77.87,11.81.87,35.12,0,63.6-22.51,63.6-50.27s-28.47-50.28-63.6-50.28"/>
  <g>
    <g>
      <path class="cls-2" d="m55.63,82.6h6.55s.04,17.98,0,22.17c0,3.06,6.81,3.1,6.8.04l.03-21.98s2.19.01,6.51.02c4.07,0,4.07-6.4,0-6.4-4.58,0-19.91-.13-19.91-.13-3.84,0-3.83,6.28,0,6.28"/>
      <g class="cls-4">
        <rect class="cls-2" x="51.78" y="76.32" width="27.82" height="31.54"/>
      </g>
    </g>
    <g>
      <path class="cls-2" d="m86.96,83.76l3.64,11.41h-7.59l3.95-11.41Zm-4.08-5.35c-1.61,3.55-7.43,20.3-9.36,24.74-1.4,3.21,4.62,5.83,6.02,2.62l1.31-4.58h11.98s-.41.19,1.18,4.39c1.29,3.4,7.51,1.04,6.22-2.36-1.84-4.86-8.2-22.34-9.36-24.81-.53-1.15-2.45-1.97-4.31-1.97-1.54,0-3.04.56-3.67,1.97"/>
      <g class="cls-5">
        <rect class="cls-2" x="72.12" y="76.45" width="29.39" height="32.54"/>
      </g>
    </g>
    <g>
      <path class="cls-2" d="m102.52,79.46c.01,5.69.03,24.04.03,24.04,0,0-.53,3.65,2.6,3.65s10.07-.03,13.14-.03,3.06-6.54-.02-6.54-8.69-.03-8.69-.03c0,0,.03-16.97.02-21.09,0-1.99-1.77-2.99-3.54-2.99s-3.55,1-3.55,3.01"/>
      <g class="cls-3">
        <rect class="cls-2" x="102.03" y="76.45" width="19.34" height="30.7"/>
      </g>
    </g>
    <g>
      <path class="cls-2" d="m122.19,78.56c.07,2.5-.08,25.07-.08,26.74,0,2.64,6.72,2.63,6.72,0,0-3.07,0-8.88,0-8.88l1.97-1.58,8.63,11.77c1.75,2.3,7.23-1.86,5.49-4.16l-9.16-12.07s6.22-6.73,8.67-9.16c1.43-1.42-3-5.88-4.43-4.46-1.39,1.37-11.13,11.13-11.13,11.13,0,0,.09-6.13,0-9.51-.03-1.29-1.61-1.91-3.23-1.91-1.73,0-3.49.71-3.46,2.09"/>
      <g class="cls-6">
        <rect class="cls-2" x="122.11" y="75.33" width="24.56" height="33.58"/>
      </g>
    </g>
  </g>
</svg>