<?xml version="1.0" encoding="UTF-8"?>
<svg id="_레이어_1" data-name="레이어 1" xmlns="http://www.w3.org/2000/svg" xmlns:xlink="http://www.w3.org/1999/xlink" viewBox="0 0 500 204.45">
  <defs>
    <style>
      .cls-1 {
        fill: #2c2d2d;
      }

      .cls-2 {
        fill: url(#_무제_그라디언트_28);
      }

      .cls-3 {
        fill: url(#_무제_그라디언트_55);
      }
    </style>
    <linearGradient id="_무제_그라디언트_28" data-name="무제 그라디언트 28" x1="154.38" y1="47.03" x2="181.79" y2="60.47" gradientUnits="userSpaceOnUse">
      <stop offset=".02" stop-color="#f8d461"/>
      <stop offset=".28" stop-color="#f6cf4b"/>
      <stop offset=".81" stop-color="#f4c415"/>
      <stop offset="1" stop-color="#f3c000"/>
    </linearGradient>
    <linearGradient id="_무제_그라디언트_55" data-name="무제 그라디언트 55" x1="187.79" y1="66.67" x2="164.8" y2="48.63" gradientUnits="userSpaceOnUse">
      <stop offset="0" stop-color="#f8d461"/>
      <stop offset=".26" stop-color="#f6cf4b"/>
      <stop offset=".81" stop-color="#f4c415"/>
      <stop offset="1" stop-color="#f3c000"/>
    </linearGradient>
  </defs>
  <path class="cls-2" d="m170.15,73.82c-.22-.07-.44-.19-.66-.3-1.65-.89-3.1-2.03-4.32-3.35h-.02c-4.84-5.16-6.09-13.02-2.56-19.59,4.43-8.24,14.7-11.33,22.93-6.9,2.36,1.27,4.28,3.02,5.73,5.06-1.66-4.3-4.79-8.06-9.17-10.42-9.74-5.23-21.89-1.58-27.12,8.16-4.17,7.76-2.7,17.06,3.03,23.15h.02c1.44,1.58,3.15,2.92,5.11,3.97.26.14.52.28.78.36h.02c4.19,2.05,8.77,2.49,13.02,1.54-2.29-.08-4.59-.61-6.77-1.67h-.02Z"/>
  <path class="cls-3" d="m190.21,65.43c2.88-5.36,3.06-11.43,1.04-16.69-1.46-2.04-3.37-3.79-5.73-5.06-8.24-4.43-18.51-1.34-22.93,6.9-3.53,6.56-2.28,14.43,2.56,19.57h.02c1.22,1.33,2.66,2.47,4.32,3.36.22.12.44.24.66.3h.02c2.18,1.07,4.49,1.6,6.77,1.68,5.47-1.22,10.41-4.74,13.27-10.07Z"/>
  <path class="cls-1" d="m287.38,113.21c-3.35-4.34-8.09-7.63-14.22-9.91,4.74-2.38,8.33-5.46,10.74-9.32,2.41-3.86,3.61-8.19,3.61-13.04,0-8.17-3.51-14.73-10.58-19.65-7.04-4.93-17.48-7.42-31.27-7.42h-45.11c.05.7.08,1.39.08,2.09,0,8.75-4.02,16.57-10.31,21.71v76.6c0,2.06-1.37,3.16-1.37,3.16h59.65c14.22,0,25.06-2.49,32.56-7.47,7.5-4.98,11.24-11.99,11.24-21.07,0-6.13-1.69-11.35-5.03-15.69Zm-62.73-34.91h16.28c7.58,0,11.38,2.57,11.38,7.68s-3.8,7.71-11.38,7.71h-16.28v-15.39Zm21.02,54.75h-21.02v-16.28h21.02c7.68,0,11.54,2.7,11.54,8.14s-3.86,8.14-11.54,8.14Zm89.56,24.4h-37.66s1.37-1.11,1.37-3.16V57.06c0-2.05-1.37-3.16-1.37-3.16h37.66s-1.37,1.11-1.37,3.16v97.23c0,2.05,1.37,3.16,1.37,3.16Z"/>
  <path class="cls-1" d="m482.45,157.45h-37.66s1.37-1.11,1.37-3.16V57.06c0-2.05-1.37-3.16-1.37-3.16h37.66s-1.37,1.11-1.37,3.16v97.23c0,2.05,1.37,3.16,1.37,3.16Zm-63.84-38.67l-.78-.69s-.02,1.39-.94,2.67c-5.73,6.36-12.34,9.57-19.85,9.57-6.95,0-12.54-2.23-16.77-6.7-4.23-4.46-6.34-10.45-6.34-17.97s2.12-13.5,6.34-17.96c4.23-4.46,9.81-6.7,16.77-6.7,7.51,0,14.12,3.21,19.84,9.57.92,1.28.94,2.68.94,2.68l.78-.69h0s21-18.74,21-18.74c-4.88-6.39-11.09-11.27-18.6-14.66-7.52-3.38-16.06-5.07-25.65-5.07-10.43,0-19.82,2.18-28.18,6.55-8.37,4.37-14.92,10.48-19.66,18.32-4.74,7.85-7.12,16.75-7.12,26.7s2.37,18.86,7.12,26.71c4.74,7.84,11.29,13.95,19.66,18.32,8.36,4.37,17.75,6.55,28.18,6.55,9.58,0,18.13-1.69,25.65-5.07,7.52-3.39,13.72-8.27,18.6-14.66l-21-18.74s0,0,0,0Z"/>
  <path class="cls-1" d="m175.6,136.07l6.56-32.99c1.71-8.89-2.52-16.39-9.91-19.06-1.87-.7-3.94-1.07-6.18-1.07h-1.34c-2.2,0-7.15.24-12.58,2.01-3.19,1.07-6.59,2.68-9.69,5.09l-4.58,23.67c1.5-1.15,9.56-4.15,8.81-.11l-6.53,32.93c-2.17,11.03,5.03,19.97,16.06,19.97h1.34c2.19,0,7.15-.24,12.58-2.01,3.21-1.04,6.59-2.65,9.72-5.03l4.55-23.48c-1.5,1.12-9.56,4.1-8.81.08Z"/>
  <path class="cls-1" d="m133.75,137.6v-.03l-3.48-7.87-2.54-5.84-29.34-67.12c-.83-2.06.11-2.86.11-2.86h-37.05s1.02.83.05,3.05l-43.94,100.51h36.68s-.75-.62-.32-2.25l6.08-15.8h39.36l5.81,15.05c.94,2.17-.05,3-.05,3h27.63v-.03c-1.13-3.91-1.31-8.14-.46-12.42l1.47-7.39Zm-64.12-23.35l10.04-26.05,10.07,26.05h-20.11Z"/>
</svg>