<?xml version="1.0" encoding="UTF-8"?>
<svg id="_레이어_1" data-name="레이어 1" xmlns="http://www.w3.org/2000/svg" viewBox="0 0 166.57 166.56">
  <defs>
    <style>
      .cls-1 {
        fill: #fff;
      }

      .cls-2 {
        fill: #333;
      }
    </style>
  </defs>
  <path class="cls-2" d="m0,83.19C.04,37.23,37.46-.19,83.45,0c46.57.19,83.27,37.65,83.12,83.48-.15,46.55-37.66,83.25-83.52,83.07C36.56,166.37.1,128.94,0,83.19Zm83.35-29.42c-10.51-.17-21.04-.25-31.48,1.2-4.37.61-7.41,3.06-8.8,7.27-1.48,4.47-1.61,9.16-1.78,13.79-.19,5.44-.1,10.9.13,16.34.14,3.45.68,6.9,1.19,10.33.34,2.28,1.41,4.26,3.06,5.92,2.27,2.28,5.16,3.09,8.22,3.32,5.29.4,10.59.81,15.89.94,7.5.17,15,.16,22.5.08,7.53-.08,15.06-.23,22.52-1.35,4.32-.65,7.32-3.06,8.74-7.22,1.3-3.82,1.47-7.84,1.67-11.82.22-4.57.26-9.16.21-13.74-.05-4.96-.41-9.91-1.35-14.8-.93-4.82-4.49-8.52-9.03-9.01-4.96-.54-9.94-1.01-14.93-1.19-5.58-.2-11.17-.05-16.76-.05Z"/>
  <path class="cls-1" d="m83.35,53.77c5.59,0,11.18-.16,16.76.05,4.98.18,9.96.66,14.93,1.19,4.54.49,8.1,4.19,9.03,9.01.94,4.89,1.3,9.84,1.35,14.8.05,4.58,0,9.17-.21,13.74-.19,3.98-.37,8-1.67,11.82-1.42,4.16-4.42,6.57-8.74,7.22-7.46,1.12-15,1.27-22.52,1.35-7.5.08-15,.09-22.5-.08-5.3-.12-10.6-.54-15.89-.94-3.06-.23-5.95-1.04-8.22-3.32-1.65-1.65-2.72-3.64-3.06-5.92-.51-3.43-1.04-6.87-1.19-10.33-.23-5.44-.32-10.9-.13-16.34.16-4.63.3-9.33,1.78-13.79,1.39-4.21,4.43-6.67,8.8-7.27,10.45-1.45,20.97-1.37,31.48-1.2Zm12.94,29.48c-.37-.26-.52-.39-.7-.49-6.49-3.69-12.97-7.38-19.46-11.06-1.01-.57-1.27-.38-1.27.91.03,7.08.07,14.17.12,21.25,0,1.41.2,1.51,1.41.82,6.27-3.57,12.55-7.14,18.82-10.72.32-.18.61-.4,1.08-.71Z"/>
  <path class="cls-2" d="m96.28,83.25c-.47.31-.76.53-1.08.71-6.27,3.58-12.54,7.15-18.82,10.72-1.21.69-1.4.59-1.41-.82-.05-7.08-.09-14.17-.12-21.25,0-1.29.26-1.48,1.27-.91,6.49,3.68,12.98,7.37,19.46,11.06.17.1.33.23.7.49Z"/>
</svg>